<?xml version="1.0" encoding="UTF-8" standalone="no"?>
<!DOCTYPE svg PUBLIC "-//W3C//DTD SVG 1.1//EN" "http://www.w3.org/Graphics/SVG/1.1/DTD/svg11.dtd">
<!-- Created with Vectornator (http://vectornator.io/) -->
<svg height="100%" stroke-miterlimit="10" style="fill-rule:nonzero;clip-rule:evenodd;stroke-linecap:round;stroke-linejoin:round;" version="1.1" viewBox="0 0 746.276 230.67" width="100%" xml:space="preserve" xmlns="http://www.w3.org/2000/svg" xmlns:vectornator="http://vectornator.io" xmlns:xlink="http://www.w3.org/1999/xlink">
<defs/>
<clipPath id="ArtboardFrame">
<rect height="230.67" width="746.276" x="0" y="0"/>
</clipPath>
<g clip-path="url(#ArtboardFrame)" id="Layer-1" vectornator:layerName="Layer 1">
<g opacity="1">
<g opacity="1">
<path d="M49.4319 128.347L83.3394 161.719L176.151 63.6082" fill="none" opacity="1" stroke="#007aff" stroke-linecap="round" stroke-linejoin="round" stroke-width="20"/>
<path d="M15.2698 115.335C15.2698 63.6954 57.1321 21.8332 108.772 21.8332C160.412 21.8332 202.274 63.6954 202.274 115.335C202.274 166.975 160.412 208.837 108.772 208.837C57.1321 208.837 15.2698 166.975 15.2698 115.335Z" fill="none" opacity="1" stroke="#70bf4f" stroke-linecap="butt" stroke-linejoin="round" stroke-width="20"/>
</g>
<g fill="#3395ff" opacity="1" stroke="none">
<path d="M274.133 62.962C273.194 64.754 271.189 65.65 268.117 65.65C264.106 65.65 261.759 65.778 261.077 66.034C257.919 67.3993 254.25 68.9353 250.069 70.642C249.813 77.1273 249.685 84.2527 249.685 92.018C249.685 107.805 250.154 123.975 251.093 140.53C251.093 141.725 251.541 143.282 252.437 145.202C253.333 147.122 253.781 148.509 253.781 149.362C253.781 150.471 253.397 151.495 252.629 152.434C250.751 154.994 247.935 156.274 244.181 156.274C240.938 156.274 237.845 155.399 234.901 153.65C231.957 151.901 230.271 149.831 229.845 147.442C229.589 146.162 230.25 144.711 231.829 143.09C233.407 141.469 234.197 139.933 234.197 138.482C233.599 121.501 233.301 106.653 233.301 93.938C233.301 86.258 233.429 80.114 233.685 75.506C233.599 75.506 232.405 75.9327 230.101 76.786C228.565 77.3833 227.327 77.682 226.389 77.682C225.023 77.682 223.786 77.2127 222.677 76.274C219.946 73.97 218.239 72.434 217.557 71.666C216.191 70.13 215.509 68.5087 215.509 66.802C215.509 66.2047 215.594 65.522 215.765 64.754C216.021 63.5593 222.25 61.1273 234.453 57.458C247.594 53.4473 254.677 51.1007 255.701 50.418C256.639 50.0767 257.685 49.3087 258.837 48.114C259.989 46.9193 261.247 46.2367 262.613 46.066C264.49 45.8953 266.965 47.1327 270.037 49.778C273.45 52.7647 275.157 55.8793 275.157 59.122C275.157 60.402 274.815 61.682 274.133 62.962Z"/>
<path d="M318.933 145.906C317.653 150.087 314.495 152.178 309.461 152.178C307.754 152.178 306.389 151.879 305.365 151.282C303.999 150.343 303.061 148.466 302.549 145.65C301.525 140.786 300.501 136.989 299.477 134.258C299.221 138.951 296.661 143.709 291.797 148.53C286.933 153.351 282.026 155.762 277.077 155.762C270.847 155.762 266.538 151.623 264.149 143.346C263.295 140.274 262.869 137.373 262.869 134.642C262.869 126.706 266.922 119.922 275.029 114.29C281.685 110.365 288.383 106.482 295.125 102.642C295.466 101.191 295.637 99.7833 295.637 98.418C295.637 95.7727 294.911 94.2153 293.461 93.746C292.01 93.2767 290.773 93.042 289.749 93.042C287.957 93.042 286.485 93.618 285.333 94.77C284.181 95.922 283.093 97.01 282.069 98.034C281.045 98.7167 279.722 100.295 278.101 102.77C276.821 104.733 275.413 105.799 273.877 105.97C271.658 106.226 269.653 105.458 267.861 103.666C266.069 101.874 265.173 99.7833 265.173 97.394C265.173 96.0287 265.514 94.7913 266.197 93.682C268.159 90.4393 271.103 87.6233 275.029 85.234C281.002 81.65 288.469 79.858 297.429 79.858C303.146 79.858 307.071 82.5887 309.205 88.05C310.57 91.7193 311.594 98.5887 312.277 108.658C313.045 120.861 313.983 129.778 315.093 135.41C315.263 136.519 315.989 137.927 317.269 139.634C318.549 141.341 319.189 142.834 319.189 144.114C319.189 144.711 319.103 145.309 318.933 145.906ZM296.661 114.418C294.101 115.783 291.562 117.191 289.045 118.642C286.527 120.093 284.202 122.013 282.069 124.402C278.997 127.901 277.461 130.887 277.461 133.362C277.461 135.41 278.229 137.543 279.765 139.762C280.618 140.957 281.557 141.554 282.581 141.554C284.799 141.554 287.21 139.079 289.813 134.13C292.415 129.181 294.698 122.61 296.661 114.418Z"/>
<path d="M370.389 134.13C370.389 140.103 368.255 145.202 363.989 149.426C359.722 153.65 354.687 155.762 348.885 155.762C345.215 155.762 341.418 154.013 337.493 150.514C334.421 147.698 331.647 144.242 329.173 140.146C327.039 136.562 326.101 134.301 326.357 133.362C327.295 131.229 330.239 130.162 335.189 130.162C337.237 130.162 338.858 130.461 340.053 131.058C342.101 132.167 343.253 133.575 343.509 135.282C343.765 137.245 344.191 138.482 344.789 138.994C346.581 141.725 348.202 143.09 349.653 143.09C350.762 143.09 351.807 142.343 352.789 140.85C353.77 139.357 354.261 137.586 354.261 135.538C354.261 134.258 354.047 132.978 353.621 131.698C353.194 130.418 350.89 128.455 346.709 125.81C341.674 122.653 338.09 119.879 335.957 117.49C332.287 113.394 330.453 108.615 330.453 103.154C330.453 96.754 332.33 91.1433 336.085 86.322C339.839 81.5007 344.618 79.09 350.421 79.09C356.394 79.09 360.959 81.3513 364.117 85.874C366.677 89.5433 367.743 93.2553 367.317 97.01C368.255 98.034 368.725 99.7407 368.725 102.13C368.725 104.69 367.786 106.866 365.909 108.658C364.031 110.45 362.111 111.346 360.149 111.346C357.247 111.346 354.73 109.426 352.597 105.586C351.999 104.562 351.701 103.197 351.701 101.49C351.701 100.722 351.765 99.634 351.893 98.226C352.021 96.818 352.085 95.8153 352.085 95.218C352.085 92.9993 351.274 91.89 349.653 91.89C347.178 91.89 345.941 94.322 345.941 99.186C345.941 104.135 347.562 108.103 350.805 111.09C352.085 112.285 354.858 113.991 359.125 116.21C362.794 118.087 365.397 120.007 366.933 121.97C369.237 124.957 370.389 129.01 370.389 134.13Z"/>
<path d="M441.173 141.298C441.258 141.895 441.301 142.493 441.301 143.09C441.301 148.21 438.442 151.666 432.725 153.458C431.615 153.799 430.634 153.97 429.781 153.97C428.245 153.97 426.837 153.245 425.557 151.794C423.594 149.661 422.399 148.466 421.973 148.21L398.933 132.082L398.933 142.834C398.933 143.602 399.167 144.562 399.637 145.714C400.106 146.866 400.341 147.741 400.341 148.338C400.341 149.277 399.871 150.258 398.933 151.282C396.799 153.501 393.727 154.61 389.717 154.61C385.877 154.61 383.402 153.33 382.293 150.77C381.781 149.575 381.61 148.338 381.781 147.058C382.122 144.839 382.293 143.346 382.293 142.578L382.293 58.354C382.207 56.818 382.378 54.514 382.805 51.442C383.573 49.5647 385.919 48.626 389.845 48.626C394.965 48.626 398.25 49.5647 399.701 51.442C400.469 52.466 400.853 53.5753 400.853 54.77C400.853 55.7087 400.533 57.1593 399.893 59.122C399.253 61.0847 398.933 62.6207 398.933 63.73C398.762 68.6793 398.762 82.6313 398.933 105.586C403.711 100.978 409.855 94.962 417.365 87.538C418.389 86.514 419.711 84.6793 421.333 82.034C422.271 80.498 423.679 79.474 425.557 78.962C426.069 78.7913 426.666 78.706 427.349 78.706C429.823 78.706 432.362 79.6447 434.965 81.522C437.567 83.3993 438.869 85.4047 438.869 87.538C438.869 88.7327 438.015 90.1833 436.309 91.89C434.602 93.5967 432.895 95.218 431.189 96.754L409.941 118.77L432.725 135.154C432.895 135.325 434.602 136.007 437.845 137.202C439.722 137.97 440.831 139.335 441.173 141.298Z"/>
<path d="M555.093 151.026C553.13 153.842 550.271 155.25 546.517 155.25C543.103 155.25 539.562 154.141 535.893 151.922C532.565 149.959 530.687 148.039 530.261 146.162C530.09 145.479 530.005 144.839 530.005 144.242C530.005 142.877 530.581 141.341 531.733 139.634C532.885 137.927 533.418 136.434 533.333 135.154L529.493 92.146L507.477 141.81C507.221 142.493 507.093 143.303 507.093 144.242C507.093 144.925 507.199 145.991 507.413 147.442C507.626 148.893 507.733 150.002 507.733 150.77C507.733 152.733 506.965 154.226 505.429 155.25C503.21 156.786 500.607 157.554 497.621 157.554C494.634 157.554 491.925 156.765 489.493 155.186C487.061 153.607 485.546 151.538 484.949 148.978C484.778 148.21 484.693 147.527 484.693 146.93C484.693 146.333 484.778 145.607 484.949 144.754C485.119 143.901 485.205 143.261 485.205 142.834C485.205 142.322 485.119 141.81 484.949 141.298L466.517 92.146L468.309 138.482C468.394 139.677 468.693 141.362 469.205 143.538C469.717 145.714 469.973 147.314 469.973 148.338C469.973 151.495 467.626 153.97 462.933 155.762C462.335 155.933 461.61 156.018 460.757 156.018C458.111 156.018 455.381 155.122 452.565 153.33C449.322 151.367 447.231 148.807 446.293 145.65C446.122 145.138 446.037 144.669 446.037 144.242C446.037 143.389 446.549 142.429 447.573 141.362C448.597 140.295 449.109 139.335 449.109 138.482L447.573 65.522C447.573 64.3273 447.146 62.8127 446.293 60.978C445.439 59.1433 445.013 57.7567 445.013 56.818C445.013 55.3673 445.781 53.81 447.317 52.146C448.853 50.482 451.541 49.65 455.381 49.65C461.013 49.65 465.493 51.0153 468.821 53.746C470.698 55.282 471.637 56.9033 471.637 58.61C471.637 58.866 471.594 59.25 471.509 59.762C471.509 60.274 471.509 60.658 471.509 60.914C471.509 61.682 471.637 62.3647 471.893 62.962L497.237 124.402L525.653 59.122C525.994 58.354 526.165 57.458 526.165 56.434C526.165 56.0927 526.122 55.5807 526.037 54.898C526.037 54.2153 526.037 53.7033 526.037 53.362C526.037 51.3993 526.933 49.7353 528.725 48.37C530.175 47.2607 532.095 46.706 534.485 46.706C538.154 46.706 541.717 47.8153 545.173 50.034C548.629 52.2527 550.314 54.77 550.229 57.586C550.143 58.9513 549.503 60.082 548.309 60.978C547.114 61.874 546.559 62.706 546.645 63.474L552.021 138.994C552.106 139.847 552.789 141.319 554.069 143.41C555.349 145.501 555.989 147.186 555.989 148.466C555.989 149.319 555.69 150.173 555.093 151.026Z"/>
<path d="M620.885 145.906C619.605 150.087 616.447 152.178 611.413 152.178C609.706 152.178 608.341 151.879 607.317 151.282C605.951 150.343 605.013 148.466 604.501 145.65C603.477 140.786 602.453 136.989 601.429 134.258C601.173 138.951 598.613 143.709 593.749 148.53C588.885 153.351 583.978 155.762 579.029 155.762C572.799 155.762 568.49 151.623 566.101 143.346C565.247 140.274 564.821 137.373 564.821 134.642C564.821 126.706 568.874 119.922 576.981 114.29C583.637 110.365 590.335 106.482 597.077 102.642C597.418 101.191 597.589 99.7833 597.589 98.418C597.589 95.7727 596.863 94.2153 595.413 93.746C593.962 93.2767 592.725 93.042 591.701 93.042C589.909 93.042 588.437 93.618 587.285 94.77C586.133 95.922 585.045 97.01 584.021 98.034C582.997 98.7167 581.674 100.295 580.053 102.77C578.773 104.733 577.365 105.799 575.829 105.97C573.61 106.226 571.605 105.458 569.813 103.666C568.021 101.874 567.125 99.7833 567.125 97.394C567.125 96.0287 567.466 94.7913 568.149 93.682C570.111 90.4393 573.055 87.6233 576.981 85.234C582.954 81.65 590.421 79.858 599.381 79.858C605.098 79.858 609.023 82.5887 611.157 88.05C612.522 91.7193 613.546 98.5887 614.229 108.658C614.997 120.861 615.935 129.778 617.045 135.41C617.215 136.519 617.941 137.927 619.221 139.634C620.501 141.341 621.141 142.834 621.141 144.114C621.141 144.711 621.055 145.309 620.885 145.906ZM598.613 114.418C596.053 115.783 593.514 117.191 590.997 118.642C588.479 120.093 586.154 122.013 584.021 124.402C580.949 127.901 579.413 130.887 579.413 133.362C579.413 135.41 580.181 137.543 581.717 139.762C582.57 140.957 583.509 141.554 584.533 141.554C586.751 141.554 589.162 139.079 591.765 134.13C594.367 129.181 596.65 122.61 598.613 114.418Z"/>
<path d="M670.421 93.17C669.738 93.17 668.671 92.8927 667.221 92.338C665.77 91.7833 664.661 91.506 663.893 91.506C663.295 91.506 662.698 91.634 662.101 91.89L657.365 94.322L657.365 138.098C657.365 139.719 658.239 141.81 659.989 144.37C661.738 146.93 662.442 148.978 662.101 150.514C661.674 152.391 660.415 153.885 658.325 154.994C656.234 156.103 653.994 156.658 651.605 156.658C647.082 156.658 643.967 154.653 642.261 150.642C641.749 149.447 641.45 145.65 641.365 139.25C641.279 134.983 641.322 128.327 641.493 119.282C641.663 109.042 641.749 102.557 641.749 99.826C641.237 99.9967 640.383 100.573 639.189 101.554C637.994 102.535 636.799 103.026 635.605 103.026C634.666 103.026 633.471 102.77 632.021 102.258C626.047 100.21 623.061 98.1193 623.061 95.986C623.061 95.474 623.189 94.9193 623.445 94.322C624.042 92.9567 625.151 92.1887 626.773 92.018C629.247 91.6767 630.741 91.378 631.253 91.122C633.215 90.354 636.799 88.5193 642.005 85.618L642.005 74.482C642.005 73.6287 641.77 72.498 641.301 71.09C640.831 69.682 640.597 68.6367 640.597 67.954C640.597 67.186 640.81 66.4607 641.237 65.778C643.455 62.3647 646.442 60.658 650.197 60.658C654.549 60.658 657.621 62.3647 659.413 65.778C660.095 67.1433 660.437 68.2527 660.437 69.106C660.437 70.13 659.925 71.1967 658.901 72.306C657.877 73.4153 657.365 74.4393 657.365 75.378L657.365 81.65C658.901 80.9673 660.607 79.8153 662.485 78.194C663.935 76.9993 665.173 76.402 666.197 76.402C666.623 76.402 667.093 76.4873 667.605 76.658C672.981 78.1087 675.669 81.3513 675.669 86.386C675.669 88.0073 675.178 89.5433 674.197 90.994C673.215 92.4447 671.957 93.17 670.421 93.17Z"/>
<path d="M725.077 137.842C724.394 141.085 722.09 144.541 718.165 148.21C717.567 149.149 715.221 150.386 711.125 151.922C706.431 153.714 702.378 154.482 698.965 154.226C692.565 153.799 687.53 150.13 683.861 143.218C680.533 136.818 678.869 128.967 678.869 119.666C678.869 109.597 680.746 100.765 684.501 93.17C688.682 84.8073 694.271 80.114 701.269 79.09C702.634 78.9193 703.957 78.834 705.237 78.834C715.391 78.834 720.981 85.0633 722.005 97.522C722.517 103.239 720.255 109.469 715.221 116.21C709.759 123.634 702.762 128.839 694.229 131.826C695.167 135.239 695.893 137.458 696.405 138.482C697.599 140.615 699.221 141.682 701.269 141.682C703.231 141.682 705.322 140.914 707.541 139.378C709.418 138.098 710.698 136.861 711.381 135.666C711.722 135.495 712.063 134.535 712.405 132.786C712.746 131.037 713.642 129.778 715.093 129.01C715.605 128.754 716.202 128.626 716.885 128.626C718.933 128.626 720.917 129.629 722.837 131.634C724.757 133.639 725.503 135.709 725.077 137.842ZM704.981 92.786C701.567 92.786 698.794 95.218 696.661 100.082C693.845 106.567 692.693 112.967 693.205 119.282C697.215 118.002 700.927 115.015 704.341 110.322C707.754 105.629 709.461 101.447 709.461 97.778C709.461 94.45 707.967 92.786 704.981 92.786Z"/>
</g>
<g opacity="1">
<path d="M234.281 174.062C216.751 174.083 199.215 174.161 181.688 174.188C178.69 174.19 176.248 176.596 176.25 179.594C176.252 182.591 178.69 185.034 181.688 185.031C216.742 185.03 251.822 185.238 286.875 184.781C306.309 184.528 325.722 184.176 345.156 183.906C383.262 183.378 421.394 182.932 459.5 182.469C562.004 181.223 664.494 180.232 767 179.156C664.493 178.239 562.006 177.4 459.5 176.312C421.393 175.908 383.263 175.501 345.156 175.031C325.722 174.792 306.31 174.505 286.875 174.281C269.348 174.08 251.811 174.042 234.281 174.062Z" fill="#70bf4f" stroke="none"/>
</g>
</g>
</g>
</svg>
